<?xml version="1.0" encoding="UTF-8" standalone="no" ?>
<COLLADA xmlns="http://www.collada.org/2005/11/COLLADASchema" version="1.4.1">
  <asset>
    <contributor>
      <author>Assimp</author>
      <authoring_tool>Assimp Exporter</authoring_tool>
    </contributor>
    <created>2025-03-15T00:06:09</created>
    <modified>2025-03-15T00:06:09</modified>
    <unit name="meter" meter="1" />
    <up_axis>Y_UP</up_axis>
  </asset>
  <library_cameras>
    <camera id="S3D-RENDER_CAM_NODE-camera" name="S3D-RENDER_CAM_NODE" >
      <optics>
        <technique_common>
          <perspective>
            <xfov sid="xfov">121.28449</xfov>
            <aspect_ratio>1.7777778</aspect_ratio>
            <znear sid="znear">0</znear>
            <zfar sid="zfar">1</zfar>
          </perspective>
        </technique_common>
      </optics>
    </camera>
    <camera id="S3D-ANIM_CAM_NODE-camera" name="S3D-ANIM_CAM_NODE" >
      <optics>
        <technique_common>
          <perspective>
            <xfov sid="xfov">121.28449</xfov>
            <aspect_ratio>1.7777778</aspect_ratio>
            <znear sid="znear">0</znear>
            <zfar sid="zfar">1</zfar>
          </perspective>
        </technique_common>
      </optics>
    </camera>
  </library_cameras>
  <library_lights>
    <light id="Rectangle_Light_17-S3D-AREA-16-light" name="Rectangle_Light_17-S3D-AREA-16" >
      <technique_common>
        <ambient>
          <color sid="color">1 1 1</color>
          <constant_attenuation>1</constant_attenuation>
          <linear_attenuation>1</linear_attenuation>
          <quadratic_attenuation>1</quadratic_attenuation>
        </ambient>
      </technique_common>
    </light>
  </library_lights>
  <library_images>
  </library_images>
  <library_effects>
    <effect id="lambertian-SPHERESHAPE-fx" name="lambertian-SPHERESHAPE">
      <profile_COMMON>
        <technique sid="standard">
          <phong>
            <emission>
              <color sid="emission">1   1   1   1</color>
            </emission>
            <diffuse>
              <color sid="diffuse">1   1   1   1</color>
            </diffuse>
            <specular>
              <color sid="specular">1.97   1.97   1.97   1</color>
            </specular>
            <shininess>
              <float sid="shininess">1</float>
            </shininess>
            <reflective>
              <color sid="reflective">1   1   1   1</color>
            </reflective>
            <transparent>
              <color sid="transparent">1   1   1   1</color>
            </transparent>
            <index_of_refraction>
              <float sid="index_of_refraction">1.2</float>
            </index_of_refraction>
          </phong>
        </technique>
      </profile_COMMON>
    </effect>
    <effect id="portal-fx" name="portal">
      <profile_COMMON>
        <technique sid="standard">
          <phong>
            <emission>
              <color sid="emission">inf   inf   inf   1</color>
            </emission>
            <diffuse>
              <color sid="diffuse">1   1   1   1</color>
            </diffuse>
            <shininess>
              <float sid="shininess">1.4012985e-45</float>
            </shininess>
            <reflective>
              <color sid="reflective">1   1   1   1</color>
            </reflective>
            <transparent>
              <color sid="transparent">1   1   1   1</color>
            </transparent>
            <index_of_refraction>
              <float sid="index_of_refraction">2.8025969e-45</float>
            </index_of_refraction>
          </phong>
        </technique>
      </profile_COMMON>
    </effect>
    <effect id="portal_1-fx" name="portal">
      <profile_COMMON>
        <technique sid="standard">
          <phong>
            <emission>
              <color sid="emission">inf   inf   inf   1</color>
            </emission>
            <diffuse>
              <color sid="diffuse">1   1   1   1</color>
            </diffuse>
            <shininess>
              <float sid="shininess">2.8025969e-45</float>
            </shininess>
            <reflective>
              <color sid="reflective">1   1   1   1</color>
            </reflective>
            <transparent>
              <color sid="transparent">1   1   1   1</color>
            </transparent>
            <index_of_refraction>
              <float sid="index_of_refraction">1.4012985e-45</float>
            </index_of_refraction>
          </phong>
        </technique>
      </profile_COMMON>
    </effect>
  </library_effects>
  <library_materials>
    <material id="lambertian-SPHERESHAPE" name="lambertian-SPHERESHAPE">
      <instance_effect url="#lambertian-SPHERESHAPE-fx"/>
    </material>
    <material id="portal" name="portal">
      <instance_effect url="#portal-fx"/>
    </material>
    <material id="portal_1" name="portal">
      <instance_effect url="#portal_1-fx"/>
    </material>
  </library_materials>
  <library_geometries>
    <geometry id="Sphere-S3D-13-SMOOTHED_1" name="Sphere-S3D-13-SMOOTHED" >
      <mesh>
        <source id="Sphere-S3D-13-SMOOTHED_1-positions" name="Sphere-S3D-13-SMOOTHED_1-positions">
          <float_array id="Sphere-S3D-13-SMOOTHED_1-positions-array" count="486"> -1.0356903 1.6757821 0 -1.3667475 1.3830315 0.31642541 -0.85476047 1.6994569 0.51198703 -1.5937635 0.98499995 0.60876346 -1.157937 1.3557363 0.83789104 -0.60876346 1.5937635 0.98499995 -1.6757821 0 1.0356903 -1.3830315 0.31642544 1.3667476 -1.6994569 0.51198703 0.85476047 -0.98500001 0.60876352 1.5937636 -1.3557361 0.83789104 1.1579369 0 1.0356903 1.6757821 -0.31642541 1.3667475 1.3830315 -0.51198709 0.85476047 1.6994569 -0.8378911 1.157937 1.3557363 -0.53833508 1.8950186 0 -0.32004589 1.8735814 0.51784515 0 1.97 0 0.31642541 1.3667475 1.3830315 0.60876346 1.5937635 0.98499995 0 1.6757822 1.0356903 1.0356903 1.6757821 0 0.53833508 1.8950186 0 0.85476047 1.6994569 0.51198703 0.32004589 1.8735814 0.51784515 -0.85476047 1.6994569 -0.51198703 -0.32004589 1.8735814 -0.51784515 -0.60876346 1.5937635 -0.98499995 0.85476047 1.6994569 -0.51198703 0.60876346 1.5937635 -0.98499995 0.32004589 1.8735814 -0.51784515 0 1.0356903 -1.6757821 -0.31642541 1.3667475 -1.3830315 0.31642541 1.3667475 -1.3830315 0 1.6757822 -1.0356903 -1.3667475 1.3830315 -0.31642541 -1.157937 1.3557363 -0.83789104 -1.5937635 0.98499995 -0.60876346 -0.51198709 0.85476047 -1.6994569 -0.98500001 0.60876352 -1.5937636 -0.8378911 1.157937 -1.3557363 -1.6757821 0 -1.0356903 -1.6994569 0.51198703 -0.85476047 -1.3830315 0.31642544 -1.3667476 -1.3557361 0.83789104 -1.1579369 -1.6757822 1.0356903 0 -1.8950186 0 -0.53833508 -1.97 0 0 -1.8735814 0.51784515 -0.32004589 -1.8950186 0 0.53833508 -1.8735814 0.51784515 0.32004589 1.3667475 1.3830315 0.31642541 1.157937 1.3557363 0.83789104 1.5937635 0.98499995 0.60876346 0.51198709 0.85476047 1.6994569 0.98500001 0.60876352 1.5937636 0.8378911 1.157937 1.3557363 1.6757821 0 1.0356903 1.6994569 0.51198703 0.85476047 1.3830315 0.31642544 1.3667476 1.3557361 0.83789104 1.1579369 0 0.53833508 1.8950186 -0.51784515 0.32004592 1.8735814 0 0 1.97 -1.3830315 -0.31642544 1.3667476 -0.98500001 -0.60876352 1.5937636 -1.0356903 0 1.6757821 0 -1.0356903 1.6757821 0 -0.53833508 1.8950186 -0.51198709 -0.85476047 1.6994569 -0.51784515 -0.32004592 1.8735814 -1.6994569 -0.51198703 0.85476047 -1.8735814 -0.51784515 0.32004589 -1.5937635 -0.98499995 0.60876346 -1.6994569 -0.51198703 -0.85476047 -1.5937635 -0.98499995 -0.60876346 -1.8735814 -0.51784515 -0.32004589 -1.0356903 -1.6757821 0 -1.3667475 -1.3830315 0.31642541 -1.3667475 -1.3830315 -0.31642541 -1.6757822 -1.0356903 0 -1.3830315 -0.31642544 -1.3667476 -1.0356903 0 -1.6757821 -0.98500001 -0.60876352 -1.5937636 0 0.53833508 -1.8950186 0 0 -1.97 -0.51784515 0.32004592 -1.8735814 0 -1.0356903 -1.6757821 -0.51198709 -0.85476047 -1.6994569 0 -0.53833508 -1.8950186 -0.51784515 -0.32004592 -1.8735814 0.51198709 0.85476047 -1.6994569 0.8378911 1.157937 -1.3557363 0.98500001 0.60876352 -1.5937636 1.3667475 1.3830315 -0.31642541 1.5937635 0.98499995 -0.60876346 1.157937 1.3557363 -0.83789104 1.6757821 0 -1.0356903 1.3830315 0.31642544 -1.3667476 1.6994569 0.51198703 -0.85476047 1.3557361 0.83789104 -1.1579369 1.0356903 -1.6757821 0 1.3667475 -1.3830315 0.31642541 0.85476047 -1.6994569 0.51198703 1.5937635 -0.98499995 0.60876346 1.157937 -1.3557363 0.83789104 0.60876346 -1.5937635 0.98499995 1.3830315 -0.31642544 1.3667476 1.6994569 -0.51198703 0.85476047 0.98500001 -0.60876352 1.5937636 1.3557361 -0.83789104 1.1579369 0.31642541 -1.3667475 1.3830315 0.51198709 -0.85476047 1.6994569 0.8378911 -1.157937 1.3557363 0.53833508 -1.8950186 0 0.32004589 -1.8735814 0.51784515 0 -1.97 0 -0.31642541 -1.3667475 1.3830315 -0.60876346 -1.5937635 0.98499995 0 -1.6757822 1.0356903 -0.53833508 -1.8950186 0 -0.85476047 -1.6994569 0.51198703 -0.32004589 -1.8735814 0.51784515 0.85476047 -1.6994569 -0.51198703 0.32004589 -1.8735814 -0.51784515 0.60876346 -1.5937635 -0.98499995 -0.85476047 -1.6994569 -0.51198703 -0.60876346 -1.5937635 -0.98499995 -0.32004589 -1.8735814 -0.51784515 0.31642541 -1.3667475 -1.3830315 -0.31642541 -1.3667475 -1.3830315 0 -1.6757822 -1.0356903 1.3667475 -1.3830315 -0.31642541 1.157937 -1.3557363 -0.83789104 1.5937635 -0.98499995 -0.60876346 0.51198709 -0.85476047 -1.6994569 0.98500001 -0.60876352 -1.5937636 0.8378911 -1.157937 -1.3557363 1.6994569 -0.51198703 -0.85476047 1.3830315 -0.31642544 -1.3667476 1.3557361 -0.83789104 -1.1579369 1.6757822 -1.0356903 0 1.8950186 0 -0.53833508 1.97 0 0 1.8735814 -0.51784515 -0.32004589 1.8950186 0 0.53833508 1.8735814 -0.51784515 0.32004589 0.51784515 -0.32004592 1.8735814 1.0356903 0 1.6757821 0.51784515 0.32004592 1.8735814 -1.157937 -1.3557363 0.83789104 -0.8378911 -1.157937 1.3557363 -1.3557361 -0.83789104 1.1579369 -0.8378911 -1.157937 -1.3557363 -1.157937 -1.3557363 -0.83789104 -1.3557361 -0.83789104 -1.1579369 1.0356903 0 -1.6757821 0.51784515 -0.32004592 -1.8735814 0.51784515 0.32004592 -1.8735814 1.8735814 0.51784515 0.32004589 1.8735814 0.51784515 -0.32004589 1.6757822 1.0356903 0 </float_array>
          <technique_common>
            <accessor count="162" offset="0" source="#Sphere-S3D-13-SMOOTHED_1-positions-array" stride="3">
              <param name="X" type="float" />
              <param name="Y" type="float" />
              <param name="Z" type="float" />
            </accessor>
          </technique_common>
        </source>
        <source id="Sphere-S3D-13-SMOOTHED_1-normals" name="Sphere-S3D-13-SMOOTHED_1-normals">
          <float_array id="Sphere-S3D-13-SMOOTHED_1-normals-array" count="486"> -0.52573115 0.85065079 0 -0.68690509 0.71042198 0.15317358 -0.43906489 0.86359555 0.24784015 -0.809017 0.50000006 0.30901709 -0.58762115 0.67557466 0.44530916 -0.30901697 0.809017 0.49999997 -0.85065073 0 0.52573109 -0.71042192 0.15317366 0.68690503 -0.86359549 0.24784023 0.43906492 -0.50000006 0.30901703 0.809017 -0.67557478 0.44530916 0.58762103 0 0.52573109 0.85065073 -0.15317358 0.68690509 0.71042198 -0.24784006 0.43906492 0.8635956 -0.44530919 0.58762109 0.67557472 -0.28589129 0.95826203 2.2062134e-09 -0.14231196 0.95079088 0.27521622 0 1 0 0.15317358 0.68690509 0.71042198 0.30901697 0.809017 0.49999997 -2.0035598e-09 0.86283726 0.50548172 0.52573115 0.85065079 0 0.28589129 0.95826203 2.2062134e-09 0.43906492 0.86359549 0.24784015 0.14231196 0.95079088 0.27521619 -0.43906492 0.86359549 -0.24784015 -0.14231196 0.95079088 -0.27521619 -0.30901697 0.809017 -0.49999997 0.43906492 0.8635956 -0.24784012 0.30901694 0.80901694 -0.49999997 0.14231196 0.95079088 -0.27521622 0 0.52573121 -0.85065073 -0.15317358 0.68690509 -0.71042198 0.15317358 0.68690509 -0.71042192 2.0035598e-09 0.86283726 -0.50548172 -0.68690509 0.71042198 -0.15317358 -0.58762115 0.67557466 -0.44530916 -0.809017 0.50000006 -0.30901709 -0.24784005 0.43906492 -0.8635956 -0.50000006 0.30901697 -0.809017 -0.44530916 0.58762109 -0.67557472 -0.85065085 2.7032017e-09 -0.52573109 -0.8635956 0.24784024 -0.43906492 -0.71042198 0.15317366 -0.68690503 -0.67557478 0.44530916 -0.58762103 -0.86283726 0.50548172 2.0035598e-09 -0.95826203 2.2062134e-09 -0.28589129 -1 0 0 -0.95079088 0.27521619 -0.14231196 -0.95826203 2.2062134e-09 0.28589129 -0.95079088 0.27521622 0.14231196 0.68690509 0.71042198 0.15317358 0.58762115 0.67557466 0.44530916 0.809017 0.50000006 0.30901709 0.24784005 0.43906492 0.8635956 0.50000006 0.30901697 0.809017 0.44530916 0.58762109 0.67557472 0.85065085 -2.7032019e-09 0.52573109 0.8635956 0.24784024 0.43906492 0.71042198 0.15317366 0.68690503 0.67557478 0.44530916 0.58762103 2.2062134e-09 0.28589129 0.95826203 -0.27521622 0.14231189 0.95079094 -2.095174e-09 0 1 -0.71042192 -0.15317366 0.68690503 -0.50000006 -0.30901697 0.809017 -0.50548166 0 0.86283731 0 -0.52573109 0.85065073 2.2062132e-09 -0.28589126 0.95826203 -0.24784006 -0.43906495 0.86359555 -0.27521622 -0.14231187 0.95079088 -0.86359555 -0.24784021 0.43906492 -0.95079088 -0.27521619 0.14231196 -0.809017 -0.49999997 0.30901703 -0.86359549 -0.24784021 -0.43906495 -0.809017 -0.49999994 -0.30901703 -0.95079088 -0.27521622 -0.14231196 -0.52573121 -0.85065079 0 -0.68690509 -0.71042198 0.15317358 -0.68690509 -0.71042192 -0.15317358 -0.86283726 -0.50548172 -2.0035598e-09 -0.71042192 -0.15317366 -0.68690503 -0.50548166 0 -0.86283731 -0.50000006 -0.30901697 -0.809017 2.2062132e-09 0.28589126 -0.95826203 -2.095174e-09 0 -1 -0.27521622 0.14231187 -0.95079088 0 -0.52573109 -0.85065073 -0.24784005 -0.43906492 -0.8635956 2.2062134e-09 -0.28589129 -0.95826203 -0.27521622 -0.14231189 -0.95079094 0.24784006 0.43906492 -0.8635956 0.44530919 0.58762109 -0.67557472 0.50000006 0.30901703 -0.809017 0.68690509 0.71042198 -0.15317358 0.809017 0.50000006 -0.30901709 0.58762115 0.67557466 -0.44530916 0.85065085 0 -0.52573109 0.71042192 0.15317366 -0.68690503 0.86359549 0.24784023 -0.43906492 0.67557478 0.44530916 -0.58762103 0.52573115 -0.85065079 0 0.68690509 -0.71042198 0.15317358 0.43906489 -0.86359555 0.24784015 0.809017 -0.50000006 0.30901709 0.58762115 -0.67557466 0.44530916 0.30901697 -0.809017 0.49999997 0.71042192 -0.15317366 0.68690503 0.86359549 -0.24784023 0.43906492 0.50000006 -0.30901703 0.809017 0.67557478 -0.44530916 0.58762103 0.15317358 -0.68690509 0.71042198 0.24784006 -0.43906492 0.8635956 0.44530919 -0.58762109 0.67557472 0.28589129 -0.95826203 2.2062134e-09 0.14231196 -0.95079088 0.27521622 0 -1 0 -0.15317358 -0.68690509 0.71042198 -0.30901697 -0.809017 0.49999997 2.0035598e-09 -0.86283726 0.50548172 -0.28589129 -0.95826203 2.2062134e-09 -0.43906492 -0.86359549 0.24784015 -0.14231196 -0.95079088 0.27521619 0.43906492 -0.86359549 -0.24784015 0.14231196 -0.95079088 -0.27521619 0.30901697 -0.809017 -0.49999997 -0.43906492 -0.8635956 -0.24784012 -0.30901694 -0.80901694 -0.49999997 -0.14231196 -0.95079088 -0.27521622 0.15317358 -0.68690509 -0.71042198 -0.15317358 -0.68690509 -0.71042192 -2.0035598e-09 -0.86283726 -0.50548172 0.68690509 -0.71042198 -0.15317358 0.58762115 -0.67557466 -0.44530916 0.809017 -0.50000006 -0.30901709 0.24784005 -0.43906492 -0.8635956 0.50000006 -0.30901697 -0.809017 0.44530916 -0.58762109 -0.67557472 0.8635956 -0.24784024 -0.43906492 0.71042198 -0.15317366 -0.68690503 0.67557478 -0.44530916 -0.58762103 0.86283726 -0.50548172 2.0035598e-09 0.95826203 -2.2062134e-09 -0.28589129 1 0 0 0.95079088 -0.27521619 -0.14231196 0.95826203 -2.2062134e-09 0.28589129 0.95079088 -0.27521622 0.14231196 0.27521622 -0.14231189 0.95079094 0.50548166 0 0.86283731 0.27521622 0.14231187 0.95079088 -0.58762115 -0.67557466 0.44530916 -0.44530916 -0.58762109 0.67557472 -0.67557478 -0.44530916 0.58762103 -0.44530919 -0.58762109 -0.67557472 -0.58762115 -0.67557466 -0.44530916 -0.67557478 -0.44530916 -0.58762103 0.50548166 0 -0.86283731 0.27521622 -0.14231187 -0.95079088 0.27521622 0.14231189 -0.95079094 0.95079088 0.27521619 0.14231196 0.95079088 0.27521622 -0.14231196 0.86283726 0.50548172 -2.0035598e-09 </float_array>
          <technique_common>
            <accessor count="162" offset="0" source="#Sphere-S3D-13-SMOOTHED_1-normals-array" stride="3">
              <param name="X" type="float" />
              <param name="Y" type="float" />
              <param name="Z" type="float" />
            </accessor>
          </technique_common>
        </source>
        <vertices id="Sphere-S3D-13-SMOOTHED_1-vertices">
          <input semantic="POSITION" source="#Sphere-S3D-13-SMOOTHED_1-positions" />
        </vertices>
        <polylist count="320" material="defaultMaterial">
          <input offset="0" semantic="VERTEX" source="#Sphere-S3D-13-SMOOTHED_1-vertices" />
          <input offset="0" semantic="NORMAL" source="#Sphere-S3D-13-SMOOTHED_1-normals" />
          <vcount>3 3 3 3 3 3 3 3 3 3 3 3 3 3 3 3 3 3 3 3 3 3 3 3 3 3 3 3 3 3 3 3 3 3 3 3 3 3 3 3 3 3 3 3 3 3 3 3 3 3 3 3 3 3 3 3 3 3 3 3 3 3 3 3 3 3 3 3 3 3 3 3 3 3 3 3 3 3 3 3 3 3 3 3 3 3 3 3 3 3 3 3 3 3 3 3 3 3 3 3 3 3 3 3 3 3 3 3 3 3 3 3 3 3 3 3 3 3 3 3 3 3 3 3 3 3 3 3 3 3 3 3 3 3 3 3 3 3 3 3 3 3 3 3 3 3 3 3 3 3 3 3 3 3 3 3 3 3 3 3 3 3 3 3 3 3 3 3 3 3 3 3 3 3 3 3 3 3 3 3 3 3 3 3 3 3 3 3 3 3 3 3 3 3 3 3 3 3 3 3 3 3 3 3 3 3 3 3 3 3 3 3 3 3 3 3 3 3 3 3 3 3 3 3 3 3 3 3 3 3 3 3 3 3 3 3 3 3 3 3 3 3 3 3 3 3 3 3 3 3 3 3 3 3 3 3 3 3 3 3 3 3 3 3 3 3 3 3 3 3 3 3 3 3 3 3 3 3 3 3 3 3 3 3 3 3 3 3 3 3 3 3 3 3 3 3 3 3 3 3 3 3 3 3 3 3 3 3 3 3 3 3 3 3 3 3 3 3 3 3 </vcount>
          <p>2 0 1 1 3 4 4 5 2 2 1 4 8 6 7 7 9 10 10 3 8 8 7 10 13 11 12 12 5 14 14 9 13 13 12 14 4 3 10 10 9 14 14 5 4 4 10 14 15 0 2 2 5 16 16 17 15 15 2 16 12 11 18 18 19 20 20 5 12 12 18 20 23 21 22 22 17 24 24 19 23 23 22 24 16 5 20 20 19 24 24 17 16 16 20 24 25 0 15 15 17 26 26 27 25 25 15 26 22 21 28 28 29 30 30 17 22 22 28 30 33 31 32 32 27 34 34 29 33 33 32 34 26 17 30 30 29 34 34 27 26 26 30 34 35 0 25 25 27 36 36 37 35 35 25 36 32 31 38 38 39 40 40 27 32 32 38 40 43 41 42 42 37 44 44 39 43 43 42 44 36 27 40 40 39 44 44 37 36 36 40 44 1 0 35 35 37 45 45 3 1 1 35 45 42 41 46 46 47 48 48 37 42 42 46 48 49 6 8 8 3 50 50 47 49 49 8 50 45 37 48 48 47 50 50 3 45 45 48 50 51 21 23 23 19 52 52 53 51 51 23 52 18 11 54 54 55 56 56 19 18 18 54 56 59 57 58 58 53 60 60 55 59 59 58 60 52 19 56 56 55 60 60 53 52 52 56 60 61 11 13 13 9 62 62 63 61 61 13 62 7 6 64 64 65 66 66 9 7 7 64 66 69 67 68 68 63 70 70 65 69 69 68 70 62 9 66 66 65 70 70 63 62 62 66 70 71 6 49 49 47 72 72 73 71 71 49 72 46 41 74 74 75 76 76 47 46 46 74 76 79 77 78 78 73 80 80 75 79 79 78 80 72 47 76 76 75 80 80 73 72 72 76 80 81 41 43 43 39 82 82 83 81 81 43 82 38 31 84 84 85 86 86 39 38 38 84 86 89 87 88 88 83 90 90 85 89 89 88 90 82 39 86 86 85 90 90 83 82 82 86 90 91 31 33 33 29 92 92 93 91 91 33 92 28 21 94 94 95 96 96 29 28 28 94 96 99 97 98 98 93 100 100 95 99 99 98 100 92 29 96 96 95 100 100 93 92 92 96 100 103 101 102 102 104 105 105 106 103 103 102 105 108 57 107 107 109 110 110 104 108 108 107 110 112 67 111 111 106 113 113 109 112 112 111 113 105 104 110 110 109 113 113 106 105 105 110 113 114 101 103 103 106 115 115 116 114 114 103 115 111 67 117 117 118 119 119 106 111 111 117 119 121 77 120 120 116 122 122 118 121 121 120 122 115 106 119 119 118 122 122 116 115 115 119 122 123 101 114 114 116 124 124 125 123 123 114 124 120 77 126 126 127 128 128 116 120 120 126 128 130 87 129 129 125 131 131 127 130 130 129 131 124 116 128 128 127 131 131 125 124 124 128 131 132 101 123 123 125 133 133 134 132 132 123 133 129 87 135 135 136 137 137 125 129 129 135 137 139 97 138 138 134 140 140 136 139 139 138 140 133 125 137 137 136 140 140 134 133 133 137 140 102 101 132 132 134 141 141 104 102 102 132 141 138 97 142 142 143 144 144 134 138 138 142 144 145 57 108 108 104 146 146 143 145 145 108 146 141 134 144 144 143 146 146 104 141 141 144 146 68 67 112 112 109 147 147 63 68 68 112 147 107 57 59 59 55 148 148 109 107 107 59 148 54 11 61 61 63 149 149 55 54 54 61 149 147 109 148 148 55 149 149 63 147 147 148 149 78 77 121 121 118 150 150 73 78 78 121 150 117 67 69 69 65 151 151 118 117 117 69 151 64 6 71 71 73 152 152 65 64 64 71 152 150 118 151 151 65 152 152 73 150 150 151 152 88 87 130 130 127 153 153 83 88 88 130 153 126 77 79 79 75 154 154 127 126 126 79 154 74 41 81 81 83 155 155 75 74 74 81 155 153 127 154 154 75 155 155 83 153 153 154 155 98 97 139 139 136 156 156 93 98 98 139 156 135 87 89 89 85 157 157 136 135 135 89 157 84 31 91 91 93 158 158 85 84 84 91 158 156 136 157 157 85 158 158 93 156 156 157 158 58 57 145 145 143 159 159 53 58 58 145 159 142 97 99 99 95 160 160 143 142 142 99 160 94 21 51 51 53 161 161 95 94 94 51 161 159 143 160 160 95 161 161 53 159 159 160 161 </p>
        </polylist>
      </mesh>
    </geometry>
    <geometry id="Square-S3D-14_1" name="Square-S3D-14" >
      <mesh>
        <source id="Square-S3D-14_1-positions" name="Square-S3D-14_1-positions">
          <float_array id="Square-S3D-14_1-positions-array" count="12"> -0.5 0 -0.5 -0.5 0 0.5 0.5 0 -0.5 0.5 0 0.5 </float_array>
          <technique_common>
            <accessor count="4" offset="0" source="#Square-S3D-14_1-positions-array" stride="3">
              <param name="X" type="float" />
              <param name="Y" type="float" />
              <param name="Z" type="float" />
            </accessor>
          </technique_common>
        </source>
        <vertices id="Square-S3D-14_1-vertices">
          <input semantic="POSITION" source="#Square-S3D-14_1-positions" />
        </vertices>
        <polylist count="2" material="defaultMaterial">
          <input offset="0" semantic="VERTEX" source="#Square-S3D-14_1-vertices" />
          <vcount>3 3 </vcount>
          <p>2 0 1 3 2 1 </p>
        </polylist>
      </mesh>
    </geometry>
    <geometry id="Square-S3D-15_1" name="Square-S3D-15" >
      <mesh>
        <source id="Square-S3D-15_1-positions" name="Square-S3D-15_1-positions">
          <float_array id="Square-S3D-15_1-positions-array" count="12"> -0.5 0 -0.5 -0.5 0 0.5 0.5 0 -0.5 0.5 0 0.5 </float_array>
          <technique_common>
            <accessor count="4" offset="0" source="#Square-S3D-15_1-positions-array" stride="3">
              <param name="X" type="float" />
              <param name="Y" type="float" />
              <param name="Z" type="float" />
            </accessor>
          </technique_common>
        </source>
        <vertices id="Square-S3D-15_1-vertices">
          <input semantic="POSITION" source="#Square-S3D-15_1-positions" />
        </vertices>
        <polylist count="2" material="defaultMaterial">
          <input offset="0" semantic="VERTEX" source="#Square-S3D-15_1-vertices" />
          <vcount>3 3 </vcount>
          <p>2 0 1 3 2 1 </p>
        </polylist>
      </mesh>
    </geometry>
  </library_geometries>
  <library_controllers>
  </library_controllers>
  <library_visual_scenes>
    <visual_scene id="node" name="">
      <node id="Sphere-S3D-13-SMOOTHED" name="Sphere-S3D-13-SMOOTHED" type="NODE">
        <matrix sid="matrix">1 0 0 0 0 1 0 -2.8329034 0 0 1 0 0 0 0 1</matrix>
        <instance_geometry url="#Sphere-S3D-13-SMOOTHED_1">
          <bind_material>
            <technique_common>
              <instance_material symbol="defaultMaterial" target="#lambertian-SPHERESHAPE">
              </instance_material>
            </technique_common>
          </bind_material>
        </instance_geometry>
      </node>
      <node id="Square-S3D-14" name="Square-S3D-14" type="NODE">
        <matrix sid="matrix">1 0 0 0.66502917 0 1 0 0 0 0 1 0 0 0 0 1</matrix>
        <instance_geometry url="#Square-S3D-14_1">
          <bind_material>
            <technique_common>
              <instance_material symbol="defaultMaterial" target="#portal">
              </instance_material>
            </technique_common>
          </bind_material>
        </instance_geometry>
      </node>
      <node id="Square-S3D-15" name="Square-S3D-15" type="NODE">
        <matrix sid="matrix">1 0 0 -0.64398098 0 1 0 0 0 0 1 0 0 0 0 1</matrix>
        <instance_geometry url="#Square-S3D-15_1">
          <bind_material>
            <technique_common>
              <instance_material symbol="defaultMaterial" target="#portal_1">
              </instance_material>
            </technique_common>
          </bind_material>
        </instance_geometry>
      </node>
      <node id="Rectangle_Light_17-S3D-AREA-16" name="Rectangle_Light_17-S3D-AREA-16" type="NODE">
        <matrix sid="matrix">1 0 0 0 0 1 0 2.0448871 0 0 1 0 0 0 0 1</matrix>
        <instance_light url="#Rectangle_Light_17-S3D-AREA-16-light"/>
      </node>
      <node id="S3D-ANIM_CAM_NODE" name="S3D-ANIM_CAM_NODE" type="NODE">
        <matrix sid="matrix">0.70710677 -0.50000006 0.5 2.5 0 0.70710677 0.70710683 3.5355344 -0.70710683 -0.5 0.49999997 2.4999995 0 0 0 1</matrix>
        <instance_camera url="#S3D-ANIM_CAM_NODE-camera"/>
      </node>
      <node id="S3D-RENDER_CAM_NODE" name="S3D-RENDER_CAM_NODE" type="NODE">
        <matrix sid="matrix">0.81309468 0.46613336 -0.34870705 -1.7435267 1.4901161e-08 0.59901768 0.80073583 4.0036592 0.58213139 -0.65107399 0.48705813 2.4353299 0 0 0 1</matrix>
        <instance_camera url="#S3D-RENDER_CAM_NODE-camera"/>
      </node>
    </visual_scene>
  </library_visual_scenes>
  <library_animations>
  </library_animations>
  <scene>
    <instance_visual_scene url="#node" />
  </scene>
</COLLADA>
